<svg width="24" height="25" viewBox="0 0 24 25" fill="none" xmlns="http://www.w3.org/2000/svg">
<g clip-path="url(#clip0_0_293)">
<path d="M12.5 3.34071C12.348 3.25294 12.1755 3.20674 12 3.20674C11.8245 3.20674 11.652 3.25294 11.5 3.34071L4 7.67071V20.0937H8.5V14.0937C8.5 13.8285 8.60536 13.5741 8.79289 13.3866C8.98043 13.1991 9.23478 13.0937 9.5 13.0937H14.5C14.7652 13.0937 15.0196 13.1991 15.2071 13.3866C15.3946 13.5741 15.5 13.8285 15.5 14.0937V20.0937H20V7.67071L12.5 3.34071ZM10.5 1.60871C10.9561 1.34541 11.4734 1.20679 12 1.20679C12.5266 1.20679 13.0439 1.34541 13.5 1.60871L21 5.93871C21.304 6.11424 21.5565 6.36671 21.732 6.67074C21.9076 6.97477 22 7.31965 22 7.67071V21.0937C22 21.3589 21.8946 21.6133 21.7071 21.8008C21.5196 21.9884 21.2652 22.0937 21 22.0937H14.5C14.2348 22.0937 13.9804 21.9884 13.7929 21.8008C13.6054 21.6133 13.5 21.3589 13.5 21.0937V15.0937H10.5V21.0937C10.5 21.3589 10.3946 21.6133 10.2071 21.8008C10.0196 21.9884 9.76522 22.0937 9.5 22.0937H3C2.73478 22.0937 2.48043 21.9884 2.29289 21.8008C2.10536 21.6133 2 21.3589 2 21.0937V7.67071C2.00001 7.31965 2.09243 6.97477 2.26796 6.67074C2.4435 6.36671 2.69597 6.11424 3 5.93871L10.5 1.60871Z" fill="#B3B3B3"/>
</g>
<defs>
<clipPath id="clip0_0_293">
<rect width="24" height="24" fill="white" transform="translate(0 0.09375)"/>
</clipPath>
</defs>
</svg>
