<svg width="22" height="22" viewBox="0 0 22 22" fill="none" xmlns="http://www.w3.org/2000/svg">
<path d="M9.53298 0.778954C4.35298 0.778954 0.125977 4.91895 0.125977 10.058C0.125977 15.197 4.35198 19.337 9.53298 19.337C11.767 19.337 13.823 18.567 15.44 17.279L19.793 21.632C19.8852 21.7275 19.9956 21.8036 20.1176 21.8561C20.2396 21.9085 20.3708 21.9361 20.5036 21.9372C20.6364 21.9384 20.768 21.9131 20.8909 21.8628C21.0138 21.8125 21.1255 21.7382 21.2194 21.6444C21.3133 21.5505 21.3875 21.4388 21.4378 21.3159C21.4881 21.193 21.5134 21.0613 21.5122 20.9286C21.5111 20.7958 21.4835 20.6646 21.4311 20.5425C21.3787 20.4205 21.3025 20.3102 21.207 20.218L16.863 15.874C18.2079 14.2343 18.942 12.1786 18.94 10.058C18.94 4.91795 14.714 0.777954 9.53298 0.777954V0.778954ZM2.12598 10.058C2.12598 6.05195 5.42798 2.77795 9.53298 2.77795C13.638 2.77795 16.94 6.05195 16.94 10.058C16.94 14.064 13.638 17.337 9.53298 17.337C5.42798 17.337 2.12598 14.065 2.12598 10.058Z" fill="currentColor"/>
</svg>
